<?xml version="1.0" encoding="iso-8859-1"?>
<!-- Generator: Adobe Illustrator 19.0.0, SVG Export Plug-In . SVG Version: 6.00 Build 0)  -->
<svg version="1.1" id="Capa_1" xmlns="http://www.w3.org/2000/svg" xmlns:xlink="http://www.w3.org/1999/xlink" x="0px" y="0px"
	 viewBox="0 0 496 496" style="enable-background:new 0 0 496 496;" xml:space="preserve">
<g>
	<circle style="fill:#FFCB57;" cx="376" cy="352" r="88"/>
	<circle style="fill:#FFCB57;" cx="120" cy="216" r="88"/>
</g>
<g>
	<rect x="320" y="176" style="fill:#E56565;" width="16" height="16"/>
	<rect x="320" y="208" style="fill:#E56565;" width="16" height="16"/>
	<rect x="336" y="192" style="fill:#E56565;" width="16" height="16"/>
	<rect x="304" y="192" style="fill:#E56565;" width="16" height="16"/>
	<rect x="160" y="336" style="fill:#E56565;" width="16" height="16"/>
	<rect x="160" y="368" style="fill:#E56565;" width="16" height="16"/>
	<rect x="176" y="352" style="fill:#E56565;" width="16" height="16"/>
	<rect x="144" y="352" style="fill:#E56565;" width="16" height="16"/>
	<rect x="40" y="304" style="fill:#E56565;" width="16" height="16"/>
	<rect x="40" y="336" style="fill:#E56565;" width="16" height="16"/>
	<rect x="56" y="320" style="fill:#E56565;" width="16" height="16"/>
	<rect x="24" y="320" style="fill:#E56565;" width="16" height="16"/>
	<rect x="432" y="448" style="fill:#E56565;" width="16" height="16"/>
	<rect x="432" y="480" style="fill:#E56565;" width="16" height="16"/>
	<rect x="448" y="464" style="fill:#E56565;" width="16" height="16"/>
	<rect x="416" y="464" style="fill:#E56565;" width="16" height="16"/>
	<rect x="368" y="112" style="fill:#E56565;" width="16" height="16"/>
	<rect x="368" y="144" style="fill:#E56565;" width="16" height="16"/>
	<rect x="384" y="128" style="fill:#E56565;" width="16" height="16"/>
	<rect x="352" y="128" style="fill:#E56565;" width="16" height="16"/>
	<rect x="440" y="208" style="fill:#E56565;" width="16" height="16"/>
	<rect x="440" y="240" style="fill:#E56565;" width="16" height="16"/>
	<rect x="456" y="224" style="fill:#E56565;" width="16" height="16"/>
	<rect x="424" y="224" style="fill:#E56565;" width="16" height="16"/>
</g>
<g>
	<path style="fill:#3F3A34;" d="M400,313.472V296h-16v16h-16v-16h-16v16h-16v80h16v16h16v-16h16v16h16v-17.472
		c9.288-3.312,16-12.112,16-22.528c0-6.144-2.32-11.752-6.128-16c3.808-4.248,6.128-9.856,6.128-16
		C416,325.584,409.288,316.784,400,313.472z M392,376h-40v-16h40c4.416,0,8,3.584,8,8S396.416,376,392,376z M392,344h-40v-16h40
		c4.416,0,8,3.584,8,8S396.416,344,392,344z"/>
	<path style="fill:#3F3A34;" d="M376,280c16.56,0,32.744,5.776,45.544,16.256l10.144-12.376C416.024,271.064,396.248,264,376,264
		c-48.52,0-88,39.48-88,88c0,20.248,7.064,40.024,19.88,55.688l12.376-10.144C309.776,384.744,304,368.56,304,352
		C304,312.296,336.296,280,376,280z"/>
	<path style="fill:#3F3A34;" d="M431.744,306.456C442.224,319.256,448,335.44,448,352c0,39.704-32.296,72-72,72
		c-16.56,0-32.744-5.776-45.544-16.256l-10.144,12.376C335.976,432.936,355.752,440,376,440c48.52,0,88-39.48,88-88
		c0-20.248-7.064-40.024-19.88-55.688L431.744,306.456z"/>
	<path style="fill:#3F3A34;" d="M144,177.472V160h-16v16h-16v-16H96v16H80v80h16v16h16v-16h16v16h16v-17.472
		c9.288-3.312,16-12.112,16-22.528c0-6.144-2.32-11.752-6.128-16c3.808-4.248,6.128-9.856,6.128-16
		C160,189.584,153.288,180.784,144,177.472z M136,240H96v-16h40c4.416,0,8,3.584,8,8S140.416,240,136,240z M136,208H96v-16h40
		c4.416,0,8,3.584,8,8S140.416,208,136,208z"/>
	<path style="fill:#3F3A34;" d="M120,144c16.56,0,32.744,5.776,45.544,16.256l10.144-12.376C160.024,135.064,140.248,128,120,128
		c-48.52,0-88,39.48-88,88c0,20.248,7.064,40.024,19.88,55.688l12.376-10.144C53.776,248.744,48,232.56,48,216
		C48,176.296,80.296,144,120,144z"/>
	<path style="fill:#3F3A34;" d="M175.744,170.456C186.224,183.256,192,199.44,192,216c0,39.704-32.296,72-72,72
		c-16.56,0-32.744-5.776-45.544-16.256L64.312,284.12C79.976,296.936,99.752,304,120,304c48.52,0,88-39.48,88-88
		c0-20.248-7.064-40.024-19.88-55.688L175.744,170.456z"/>
	<path style="fill:#3F3A34;" d="M256,144h-16v-16h-16v368h48V128h-16V144z M240,480V160h16v320H240z"/>
	<path style="fill:#3F3A34;" d="M469.312,82.024c-2.96-2.632-72.256-62.856-181.312-65.752V0h-80v16.272
		C98.944,19.168,29.648,79.392,26.688,82.024L24,84.408V104h16l1.8-0.2c0.992-0.24,96.408-22.064,166.2-23.696V112h80V80.104
		c69.792,1.632,165.208,23.456,166.2,23.688L472,104V84.408L469.312,82.024z M47.368,86.168
		C69.704,70.056,127.936,34.496,208,32.216v31.912C148.608,65.432,73.344,80.568,47.368,86.168z M272,96h-48V16h48V96z M288,64.128
		V32.216c79.832,2.288,138.168,37.808,160.584,53.944C422.552,80.552,347.352,65.432,288,64.128z"/>
</g>
<g>
</g>
<g>
</g>
<g>
</g>
<g>
</g>
<g>
</g>
<g>
</g>
<g>
</g>
<g>
</g>
<g>
</g>
<g>
</g>
<g>
</g>
<g>
</g>
<g>
</g>
<g>
</g>
<g>
</g>
</svg>
