<?xml version="1.0" encoding="iso-8859-1"?>
<!-- Generator: Adobe Illustrator 19.0.0, SVG Export Plug-In . SVG Version: 6.00 Build 0)  -->
<svg version="1.1" id="Capa_1" xmlns="http://www.w3.org/2000/svg" xmlns:xlink="http://www.w3.org/1999/xlink" x="0px" y="0px"
	 viewBox="0 0 512 512" style="enable-background:new 0 0 512 512;" xml:space="preserve">
<circle style="fill:#52BFEF;" cx="256" cy="256" r="246"/>
<circle style="fill:#FFFFFF;" cx="256" cy="256" r="157"/>
<circle style="fill:#52BFEF;" cx="256" cy="256" r="119"/>
<g>
	<path style="fill:#FFFFFF;" d="M147.392,142.633c28.155-26.98,66.338-43.576,108.399-43.631L255.798,99V14l-17.004-3.392
		C176.835,14.89,121.199,42.111,80.302,83.843l5.041,1.526l58.637,58.637L147.392,142.633z"/>
	<path style="fill:#FFFFFF;" d="M367.003,367.028c-15.03,15.027-33.094,27.018-53.193,34.983l-0.003,0.002l-0.004,0.001
		C295.914,409.102,276.412,413,256,413c-0.063,0-0.126-0.002-0.189-0.002L255.798,413v85.728l7.545,3.154
		c64.089-1.879,122.018-28.273,164.755-70.127v-3.631L367.003,367.028z"/>
	<path style="fill:#FFFFFF;" d="M367.812,149.437c26.98,28.155,43.576,66.338,43.631,108.399l0.003,0.007h85l3.392-17.004
		c-4.282-61.958-31.503-117.595-73.235-158.491l-1.526,5.041l-58.637,58.637L367.812,149.437z"/>
	<path style="fill:#FFFFFF;" d="M143.417,369.048c-15.027-15.03-27.018-33.094-34.983-53.193l-0.002-0.003l-0.001-0.004
		c-7.088-17.89-10.986-37.391-10.986-57.803c0-0.063,0.002-0.126,0.002-0.189l-0.002-0.013H11.717l-3.154,7.545
		c1.879,64.089,28.273,122.018,70.127,164.755h3.631L143.417,369.048z"/>
</g>
<path d="M437.02,74.981C388.667,26.628,324.38,0,256,0S123.333,26.628,74.98,74.981C26.629,123.333,0,187.62,0,256
	s26.629,132.667,74.98,181.019C123.333,485.372,187.62,512,256,512s132.667-26.628,181.02-74.981
	C485.371,388.667,512,324.38,512,256S485.371,123.333,437.02,74.981z M422.669,245.636c-2.361-38.37-17.734-73.272-41.755-100.345
	l48.83-48.83c36.449,39.663,59.523,91.792,62.016,149.174h-69.091V245.636z M20.213,265.636h15.175
	c1.721,32.403,10.078,64.623,24.313,93.57c1.739,3.537,5.289,5.589,8.981,5.589c1.481,0,2.986-0.331,4.405-1.029
	c4.956-2.438,6.998-8.431,4.561-13.387c-12.896-26.223-20.52-55.382-22.222-84.744h33.858c2.212,38.688,17.654,73.886,41.86,101.139
	l-48.828,48.829C45.679,375.765,22.542,323.337,20.213,265.636z M82.299,96.416l48.829,48.829
	c-24.045,27.079-39.434,61.999-41.797,100.391H20.24C22.734,188.231,45.826,136.084,82.299,96.416z M366.775,131.145
	c-27.12-24.088-62.108-39.494-100.573-41.824V20.234c57.478,2.458,109.693,25.564,149.401,62.082L366.775,131.145z M246.202,89.295
	c-38.602,2.245-73.722,17.659-100.931,41.809L96.442,82.275c39.795-36.579,92.145-59.69,149.76-62.056V89.295z M145.291,380.913
	c27.206,24.139,62.318,39.547,100.911,41.791v69.076c-57.606-2.365-109.948-25.469-149.741-62.038L145.291,380.913z
	 M266.202,422.679c38.456-2.329,73.437-17.729,100.553-41.807l48.828,48.829c-39.706,36.508-91.913,59.607-149.382,62.065v-69.087
	H266.202z M256,403c-81.056,0-147-65.944-147-147c0-40.213,16.236-76.7,42.49-103.267c0.228-0.191,0.452-0.388,0.666-0.602
	c0.213-0.213,0.409-0.436,0.599-0.663C179.32,125.227,215.799,109,256,109c81.056,0,147,65.944,147,147S337.056,403,256,403z
	 M429.726,415.558l-48.829-48.829c24.183-27.247,39.608-62.427,41.819-101.093h69.072
	C489.458,323.315,466.339,375.725,429.726,415.558z"/>
<path d="M94.403,378.855c-0.23-0.384-0.496-0.767-0.776-1.117c-3.449-4.311-9.741-5.013-14.056-1.562
	c-4.114,3.291-4.939,9.169-2.012,13.448c1.916,2.823,5.059,4.377,8.278,4.377c1.751,0,3.524-0.46,5.135-1.427
	C95.709,389.733,97.244,383.591,94.403,378.855z"/>
<path d="M257.114,364.997c-0.021,0-0.042,0-0.063,0l-0.317,0.002c-5.522,0.034-9.973,4.539-9.938,10.062
	c0.034,5.502,4.505,9.938,9.999,9.938c0.021,0,0.042,0,0.063,0l0.317-0.002c5.522-0.034,9.973-4.539,9.938-10.062
	C267.079,369.434,262.608,364.997,257.114,364.997z"/>
<path d="M346.472,164.04c-24.563-24.168-57.101-37.321-91.524-37.046c-71.132,0.575-128.533,58.914-127.959,130.046
	c0.218,26.847,8.599,52.518,24.236,74.235c15.285,21.227,36.313,37.141,60.813,46.022c1.126,0.408,2.276,0.602,3.407,0.602
	c4.09,0,7.928-2.528,9.402-6.595c1.882-5.192-0.801-10.927-5.993-12.81c-42.618-15.449-71.499-56.286-71.865-101.617
	c-0.486-60.104,48.017-109.398,108.121-109.885c29.088-0.248,56.58,10.881,77.335,31.303c20.754,20.421,32.313,47.703,32.549,76.818
	c0.367,45.332-27.85,86.63-70.213,102.766c-5.161,1.966-7.751,7.744-5.785,12.905c1.965,5.161,7.742,7.749,12.904,5.786
	c24.354-9.276,45.122-25.528,60.062-47c15.285-21.968,23.249-47.771,23.032-74.619C384.714,220.495,371.034,188.208,346.472,164.04z
	"/>
<path d="M334.751,230.852c0-22.526-18.326-40.852-40.853-40.852c-22.525,0-40.852,18.326-40.852,40.852c0,5.523,4.478,10,10,10
	s10-4.477,10-10c0-11.498,9.354-20.852,20.852-20.852s20.853,9.354,20.853,20.852c0,20.545-35.481,55.837-57.844,73.255
	c-3.372,2.623-4.705,7.098-3.319,11.139c1.387,4.041,5.188,6.754,9.459,6.754h61.704c5.522,0,10-4.477,10-10s-4.478-10-10-10
	h-34.833C309.261,283.793,334.751,255.184,334.751,230.852z"/>
<path d="M242.481,224.846c-3.906-3.905-10.236-3.905-14.143,0l-17.009,17.009l-17.009-17.009c-3.906-3.905-10.236-3.905-14.143,0
	c-3.905,3.905-3.905,10.237,0,14.143l17.009,17.009l-17.009,17.009c-3.905,3.905-3.905,10.237,0,14.143
	c1.953,1.953,4.512,2.929,7.071,2.929s5.118-0.976,7.071-2.929l17.009-17.009l17.009,17.009c1.953,1.953,4.512,2.929,7.071,2.929
	s5.118-0.976,7.071-2.929c3.905-3.905,3.905-10.237,0-14.143l-17.009-17.009l17.009-17.009
	C246.387,235.083,246.387,228.751,242.481,224.846z"/>
<g>
</g>
<g>
</g>
<g>
</g>
<g>
</g>
<g>
</g>
<g>
</g>
<g>
</g>
<g>
</g>
<g>
</g>
<g>
</g>
<g>
</g>
<g>
</g>
<g>
</g>
<g>
</g>
<g>
</g>
</svg>
